# xmcd
#
# Track frame offsets:
#	150
#	18634
#	34662
#	51543
#	68918
#	93888
#	108348
#	140207
#	167995
#	187726
#	210775
#	231767
#	246578
#	262700
#	281385
#	297124
#	316873
#
# Disc length: 4810 seconds
#
# Revision: 1
# Processed by: cddbd v1.5.2PL0 Copyright (c) Steve Scherf et al.
# Submitted via: audiograbber 1.83.01
#
DISCID=ef12c811
DTITLE=Various Artist - Ridin' Dirty in the South: The Ultimate Southern Hip-H
DTITLE=op Collection D2
DYEAR=2006
DGENRE=Rap
TTITLE0=8-Ball and M.J.G. - Keep It Gangsta
TTITLE1=Webbie - Pop Trunk
TTITLE2=Big Tuck f./ D.S.R. - Let's Go
TTITLE3=3-2 - Gorillas
TTITLE4=Pimp C f./ Magno - Green Boy
TTITLE5=Big Tiger - Get Off Me
TTITLE6=Big Pokey - Two-Way
TTITLE7=Mr. Blaze - Freestyle
TTITLE8=Hawk - Money That I Luv
TTITLE9=Lil Boosie f./ Max Minelli - I Got That Slap
TTITLE10=Lil' Flip - Let's Ride
TTITLE11=50 Cal - X-Tacy Got Her
TTITLE12=Woss Ness - Bangin'
TTITLE13=Z-Ro - Ends
TTITLE14=Charlie Boy (Freestyle Kingz) - Fuck What You Heard
TTITLE15=D.S.R. f./ Mike Jones - Grippin' Grain, Switchin' Lanes
TTITLE16=Slim Thug f./ Chamillionaire, Paul Wall and 50/50 Twin - Swishahouse Cla
TTITLE16=ssic
EXTD=
EXTT0=
EXTT1=
EXTT2=
EXTT3=
EXTT4=
EXTT5=
EXTT6=
EXTT7=
EXTT8=
EXTT9=
EXTT10=
EXTT11=
EXTT12=
EXTT13=
EXTT14=
EXTT15=
EXTT16=
PLAYORDER=
